<svg xmlns="http://www.w3.org/2000/svg" xmlns:xlink="http://www.w3.org/1999/xlink" viewBox="0 0 32.78 43.71"><defs><style>.cls-1{fill:url(#linear-gradient);}.cls-2{fill:url(#linear-gradient-2);}.cls-3{fill:url(#linear-gradient-3);}.cls-4{fill:url(#linear-gradient-4);}.cls-5{fill:url(#linear-gradient-5);}.cls-6{fill:url(#linear-gradient-6);}</style><linearGradient id="linear-gradient" x1="5.1" y1="43.95" x2="32.3" y2="0.91" gradientUnits="userSpaceOnUse"><stop offset="0" stop-color="#876222"/><stop offset="1" stop-color="#ffcc8a"/></linearGradient><linearGradient id="linear-gradient-2" x1="18.29" y1="9.31" x2="14.85" y2="14.14" xlink:href="#linear-gradient"/><linearGradient id="linear-gradient-3" x1="25.63" y1="12.67" x2="21.81" y2="18.03" xlink:href="#linear-gradient"/><linearGradient id="linear-gradient-4" x1="21.15" y1="24.72" x2="12.87" y2="36.37" xlink:href="#linear-gradient"/><linearGradient id="linear-gradient-5" x1="29.94" y1="18.53" x2="27.29" y2="22.26" gradientTransform="translate(0.77 -3.47)" xlink:href="#linear-gradient"/><linearGradient id="linear-gradient-6" x1="27.12" y1="3.03" x2="23.56" y2="8.04" xlink:href="#linear-gradient"/></defs><title>list_relax</title><g id="Layer_2" data-name="Layer 2"><g id="Layer_1-2" data-name="Layer 1"><path class="cls-1" d="M17.19,43.7C-.1,43.35-1.88,31.2,1.28,18.9,4.34,7,9,0,17.33,0,28.54,0,28.85,8.81,30.58,16.65,33.82,31.37,36.15,44.08,17.19,43.7Z"/><circle class="cls-2" cx="16.39" cy="11.99" r="0.81"/><circle class="cls-3" cx="23.58" cy="15.54" r="1.33"/><circle class="cls-4" cx="17.77" cy="29.47" r="2.19"/><ellipse class="cls-5" cx="28.69" cy="17.89" rx="1.13" ry="1.55" transform="matrix(0.99, -0.14, 0.14, 0.99, -2.19, 4.13)"/><circle class="cls-6" cx="24.91" cy="6.14" r="0.94"/></g></g></svg>