<svg xmlns="http://www.w3.org/2000/svg" xmlns:xlink="http://www.w3.org/1999/xlink" viewBox="0 0 32.78 43.71"><defs><style>.cls-1{fill:url(#linear-gradient);}.cls-2{fill:url(#linear-gradient-2);}.cls-3{fill:url(#linear-gradient-3);}.cls-4{fill:url(#linear-gradient-4);}.cls-5{fill:url(#linear-gradient-5);}.cls-6{fill:url(#linear-gradient-6);}</style><linearGradient id="linear-gradient" x1="8.42" y1="43.97" x2="25.87" y2="7" gradientUnits="userSpaceOnUse"><stop offset="0" stop-color="#9c4618"/><stop offset="1" stop-color="#f0964d"/></linearGradient><linearGradient id="linear-gradient-2" x1="23.66" y1="8.74" x2="21.79" y2="12.56" xlink:href="#linear-gradient"/><linearGradient id="linear-gradient-3" x1="20.73" y1="21.15" x2="17.03" y2="25.85" xlink:href="#linear-gradient"/><linearGradient id="linear-gradient-4" x1="18.17" y1="14.82" x2="14.47" y2="19.52" xlink:href="#linear-gradient"/><linearGradient id="linear-gradient-5" x1="27.7" y1="11.29" x2="20.74" y2="20.15" xlink:href="#linear-gradient"/><linearGradient id="linear-gradient-6" x1="11.83" y1="42.56" x2="13.73" y2="35.99" gradientUnits="userSpaceOnUse"><stop offset="0" stop-color="#c96f5d"/><stop offset="1" stop-color="#5c270b" stop-opacity="0"/></linearGradient></defs><title>list_medium</title><g id="Layer_2" data-name="Layer 2"><g id="Layer_1-2" data-name="Layer 1"><path class="cls-1" d="M17.19,43.7C-.1,43.35-1.88,31.2,1.28,18.9,4.34,7,9,0,17.33,0,28.54,0,28.85,8.81,30.58,16.65,33.82,31.37,36.15,44.08,17.19,43.7Z"/><circle class="cls-2" cx="22.73" cy="10.64" r="0.87"/><circle class="cls-3" cx="19.47" cy="22.75" r="0.87"/><circle class="cls-4" cx="16.92" cy="16.42" r="0.87"/><circle class="cls-5" cx="25.34" cy="14.3" r="1.64"/><path class="cls-6" d="M10.33,42c-6-2.24-7.6-5.34-7.42-8.32s7,5.15,12,5.88,9.92.09,8.66,2S15.93,44.05,10.33,42Z"/></g></g></svg>